<?xml version="1.0" standalone="no"?>
<!DOCTYPE svg PUBLIC "-//W3C//DTD SVG 20010904//EN"
 "http://www.w3.org/TR/2001/REC-SVG-20010904/DTD/svg10.dtd">
<svg version="1.0" xmlns="http://www.w3.org/2000/svg"
 width="988.000000pt" height="988.000000pt" viewBox="0 0 988.000000 988.000000"
 preserveAspectRatio="xMidYMid meet">
<metadata>
Created by potrace 1.14, written by Peter Selinger 2001-2017
</metadata>
<g transform="translate(0.000000,988.000000) scale(0.100000,-0.100000)"
fill="#000000" stroke="none">
<path d="M1797 6314 c-1 -1 -157 -4 -347 -8 -190 -4 -361 -8 -380 -10 -19 -2
-89 -7 -155 -10 -66 -4 -127 -9 -135 -11 -8 -2 -46 -6 -85 -9 -220 -17 -335
-58 -428 -149 -114 -113 -151 -246 -184 -657 -17 -201 -9 -858 12 -1014 2 -17
7 -58 11 -91 8 -65 8 -65 22 -145 33 -179 127 -309 273 -376 44 -21 204 -57
227 -52 4 1 32 -1 62 -5 229 -27 396 -31 1255 -31 707 0 972 4 1095 18 19 3
67 7 105 11 234 22 345 70 444 192 43 53 85 141 94 198 3 17 10 59 16 95 12
74 17 118 26 210 4 36 9 76 12 90 12 55 11 835 -2 950 -21 191 -25 222 -41
300 -26 130 -39 166 -86 237 -112 168 -242 214 -678 238 -58 3 -139 8 -180 10
-117 7 -948 23 -953 19z"/>
<path d="M4758 6254 c-2 -1 -28 -5 -58 -7 -30 -3 -71 -8 -90 -12 -46 -8 -204
-58 -210 -66 -3 -4 -14 -9 -25 -11 -11 -1 -24 -7 -30 -11 -5 -4 -38 -27 -72
-50 -68 -47 -135 -107 -173 -156 -14 -18 -33 -42 -44 -54 -10 -12 -22 -31 -27
-42 -15 -30 -33 -61 -48 -79 -7 -9 -11 -16 -7 -16 3 0 -3 -15 -13 -32 -20 -37
-46 -109 -43 -120 1 -5 -2 -8 -8 -8 -5 0 -7 -7 -4 -15 4 -8 2 -15 -2 -15 -5 0
-10 -10 -11 -22 -4 -51 -8 -78 -13 -78 -4 0 -7 -10 -7 -22 -1 -13 -5 -50 -8
-83 -10 -95 -13 -365 -4 -371 4 -2 4 -16 -1 -29 -5 -14 -6 -25 -1 -25 5 0 9
-10 9 -22 0 -23 10 -103 12 -103 1 0 4 -13 6 -30 3 -16 11 -42 19 -57 10 -20
10 -28 2 -28 -7 0 -6 -4 3 -10 8 -5 11 -10 6 -10 -5 0 -3 -6 3 -14 7 -8 14
-24 16 -36 5 -27 57 -134 68 -138 4 -2 7 -9 7 -16 0 -7 8 -21 18 -32 9 -11 18
-26 20 -34 2 -8 12 -20 23 -28 10 -7 19 -20 19 -28 0 -8 5 -12 10 -9 6 3 10 1
10 -5 0 -27 279 -280 310 -280 5 0 10 -4 10 -8 0 -9 89 -52 108 -52 7 0 12 -4
12 -10 0 -5 7 -10 15 -10 9 0 41 -9 73 -19 31 -10 78 -21 105 -24 26 -3 52 -9
59 -13 7 -5 8 -3 3 5 -5 10 -3 11 11 4 11 -6 34 -9 52 -8 17 0 32 -3 32 -8 0
-5 6 -4 13 2 8 6 17 8 20 4 4 -3 32 -5 62 -4 53 2 58 0 118 -49 34 -28 77 -63
96 -78 19 -15 44 -37 56 -49 12 -13 25 -23 29 -23 6 0 50 -36 88 -72 10 -10
18 -15 18 -11 0 4 7 -3 16 -15 8 -12 19 -22 24 -22 5 0 23 -13 40 -30 l30 -30
27 23 c15 12 40 34 56 50 16 15 31 27 34 27 3 0 20 16 39 35 18 19 36 35 41
35 5 0 15 8 24 18 8 9 38 37 66 62 49 42 50 45 36 67 -9 13 -19 23 -23 23 -12
0 -75 62 -73 71 2 4 -12 18 -30 31 -17 12 -42 32 -53 43 -12 11 -35 30 -50 42
-16 12 -39 30 -51 40 l-22 19 47 45 c52 50 78 80 104 120 9 14 23 32 31 40 7
8 14 17 15 21 1 5 17 41 36 80 35 76 58 128 62 141 1 4 2 8 4 10 2 3 9 35 15
67 2 14 4 26 6 28 1 1 3 7 4 12 1 6 3 11 5 13 4 4 12 72 13 114 1 24 4 43 7
43 3 0 6 65 6 145 1 82 -2 145 -8 145 -5 0 -5 7 0 18 8 17 8 26 -2 92 -4 19
-8 51 -11 70 -3 19 -7 46 -10 60 -4 14 -7 30 -9 37 -1 7 -5 16 -9 19 -4 4 -7
20 -7 36 0 15 -4 28 -9 28 -6 0 -8 9 -6 20 2 11 0 20 -5 20 -5 0 -12 10 -15
23 -9 29 -65 141 -74 147 -7 4 -14 19 -21 42 -8 30 -258 282 -329 333 -57 41
-181 105 -204 105 -7 0 -17 4 -22 9 -6 6 -21 12 -35 15 -101 22 -131 28 -175
32 -63 6 -174 11 -177 8z m262 -578 c33 -10 72 -28 86 -41 14 -14 44 -75 44
-92 0 -7 5 -13 11 -13 5 0 7 -4 4 -10 -3 -5 -1 -10 5 -10 6 0 9 -4 6 -9 -4 -5
0 -36 8 -70 8 -33 12 -62 9 -65 -3 -3 -1 -11 4 -18 11 -15 10 -382 -2 -443 -4
-22 -8 -47 -9 -55 -2 -8 -5 -22 -9 -30 -4 -8 -8 -24 -10 -35 -10 -51 -63 -156
-97 -193 -44 -45 -77 -73 -91 -76 -8 -1 -24 -7 -35 -14 -12 -6 -24 -8 -28 -5
-3 3 -6 2 -6 -4 0 -5 -6 -10 -12 -11 -88 -7 -118 -8 -118 -3 0 4 -12 6 -27 5
-16 -1 -34 3 -40 9 -7 5 -13 6 -13 3 0 -4 -18 3 -40 15 -28 16 -43 33 -51 58
-6 20 -15 41 -20 46 -4 6 -11 26 -14 45 -3 18 -9 38 -13 44 -3 6 -7 18 -9 26
-8 56 -14 111 -15 150 0 25 -5 51 -10 58 -6 6 -7 12 -2 12 5 0 10 57 10 128 1
134 9 220 24 273 5 18 8 35 5 37 -2 3 1 14 7 26 7 11 13 23 13 26 1 3 11 26
24 52 42 86 123 156 213 182 43 13 157 14 198 2z"/>
<path d="M8363 6200 c-8 -19 -16 -42 -18 -50 -2 -8 -38 -107 -80 -220 -42
-113 -82 -223 -89 -245 -8 -22 -54 -150 -104 -285 -49 -135 -145 -396 -211
-580 -67 -184 -125 -342 -128 -350 -3 -8 -7 -17 -7 -20 -1 -3 -6 -18 -13 -35
-6 -16 -21 -57 -33 -90 -12 -33 -26 -69 -30 -80 -5 -11 -19 -49 -31 -85 -12
-36 -24 -70 -28 -77 -3 -6 -6 214 -6 490 1 276 -1 506 -4 511 -2 5 -6 30 -8
55 -4 54 -61 241 -73 241 -5 0 -11 8 -14 18 -6 18 -63 81 -102 113 -10 9 -37
36 -59 60 -40 44 -138 103 -185 113 -14 2 -45 9 -70 14 -87 17 -238 4 -313
-26 -16 -7 -35 -12 -43 -12 -8 0 -14 -4 -14 -10 0 -5 -5 -10 -11 -10 -7 0 -35
-15 -63 -34 -28 -19 -67 -36 -86 -38 -34 -3 -35 -2 -42 41 -4 24 -5 48 -2 52
6 10 0 11 -83 13 -34 1 -65 5 -69 8 -4 4 -14 4 -23 -1 -18 -8 -70 -7 -95 2 -8
3 -17 3 -20 -1 -6 -9 -87 -8 -103 1 -5 3 -13 3 -17 -1 -4 -4 -29 -7 -54 -7
l-47 0 0 -810 0 -810 40 -1 c73 -2 70 0 70 -56 l0 -53 270 0 270 0 1 28 c1 15
3 30 6 33 3 3 2 21 -2 40 -5 21 -4 34 2 34 7 0 7 5 1 13 -11 14 -11 27 0 45 5
6 5 12 0 12 -4 0 -8 18 -8 40 0 22 4 40 9 40 6 0 5 5 -2 12 -7 7 -8 17 -1 30
5 10 6 18 2 18 -4 0 -8 11 -8 25 0 14 4 25 9 25 5 0 2 8 -5 17 -12 14 -12 16
0 8 10 -6 12 -4 6 5 -11 17 -12 50 -4 81 4 15 3 32 -1 40 -5 7 -4 21 1 31 5
10 6 18 1 18 -9 0 -7 60 2 86 2 6 0 17 -4 24 -5 8 -4 22 1 32 5 10 6 18 1 18
-9 0 -6 69 3 78 2 2 0 14 -5 27 -5 14 -5 26 3 34 6 6 7 11 1 11 -5 0 -9 27 -9
60 0 33 4 60 8 60 5 0 5 5 1 12 -13 21 -7 76 11 104 23 36 97 66 169 69 68 3
100 -6 102 -26 0 -8 2 -254 2 -547 l2 -532 50 4 c49 4 50 4 58 -27 5 -18 6
-33 2 -35 -4 -1 -5 -13 -3 -25 l5 -23 268 0 c299 -1 280 -6 275 68 -3 42 2 44
85 43 53 0 55 -2 52 -25 -2 -14 -8 -29 -12 -35 -4 -5 -10 -19 -12 -30 -3 -20
3 -20 299 -21 l303 0 31 100 c17 56 37 119 44 141 7 22 18 58 24 80 l10 40
306 -1 c282 -1 319 -4 321 -22 0 -4 7 -27 14 -52 7 -25 14 -48 16 -52 1 -5 3
-10 4 -13 1 -3 3 -8 4 -12 1 -5 7 -29 15 -54 12 -45 14 -47 47 -44 40 2 47 -5
63 -66 l13 -45 304 0 c167 -1 304 2 304 4 0 7 -119 340 -135 377 -7 17 -34 89
-60 160 -26 72 -62 171 -80 220 -18 50 -83 227 -144 395 -61 168 -115 314
-120 325 -9 20 -35 91 -86 235 -14 41 -31 86 -36 100 -6 13 -38 98 -71 190
-33 91 -62 167 -64 169 -3 3 -18 6 -34 7 -37 2 -50 11 -50 32 -1 9 -9 31 -18
47 l-17 31 -263 0 -263 0 -16 -36z m381 -975 c32 -111 78 -260 92 -298 8 -21
12 -42 9 -46 -7 -12 -255 -12 -255 0 0 5 21 76 46 157 25 81 53 173 62 204 9
32 19 54 22 50 4 -4 14 -34 24 -67z"/>
</g>
</svg>
