<?xml version="1.0" standalone="no"?>
<!DOCTYPE svg PUBLIC "-//W3C//DTD SVG 20010904//EN"
 "http://www.w3.org/TR/2001/REC-SVG-20010904/DTD/svg10.dtd">
<svg version="1.0" xmlns="http://www.w3.org/2000/svg"
 width="1030.000000pt" height="1030.000000pt" viewBox="0 0 1030.000000 1030.000000"
 preserveAspectRatio="xMidYMid meet">
<metadata>
Created by potrace 1.14, written by Peter Selinger 2001-2017
</metadata>
<g transform="translate(0.000000,1030.000000) scale(0.100000,-0.100000)"
fill="#000000" stroke="none">
<path d="M1867 6714 c-1 -1 -153 -4 -337 -8 -184 -3 -364 -8 -400 -10 -36 -3
-110 -7 -164 -11 -55 -3 -113 -8 -130 -10 -17 -2 -60 -6 -96 -10 -73 -7 -126
-14 -155 -19 -11 -2 -40 -7 -65 -11 -79 -12 -185 -70 -249 -136 -101 -102
-143 -223 -166 -470 -4 -35 -8 -71 -10 -79 -13 -44 -20 -277 -20 -615 0 -331
4 -466 19 -590 2 -16 7 -57 10 -90 4 -33 12 -84 18 -114 5 -30 12 -64 13 -75
18 -112 64 -197 150 -281 92 -90 177 -128 318 -140 21 -2 50 -6 65 -9 15 -3
56 -8 92 -11 36 -3 85 -7 110 -10 51 -5 265 -16 415 -21 118 -4 1436 -4 1545
0 87 3 319 17 370 21 285 26 389 50 476 109 158 107 222 243 250 536 3 30 7
61 10 69 2 7 7 54 10 105 3 50 8 102 11 116 9 44 10 682 2 775 -5 50 -11 124
-14 165 -3 41 -7 86 -10 100 -2 14 -6 41 -9 60 -29 200 -54 291 -104 370 -79
125 -194 199 -357 229 -96 18 -178 25 -565 46 -149 9 -1026 24 -1033 19z"/>
<path d="M4956 6458 c-9 -5 -34 -12 -54 -14 -62 -6 -76 -10 -100 -23 -13 -7
-26 -10 -29 -7 -3 3 -15 0 -27 -6 -11 -7 -23 -13 -26 -13 -3 0 -15 -6 -26 -13
-12 -6 -24 -8 -28 -5 -3 3 -6 1 -6 -6 0 -7 -4 -9 -10 -6 -5 3 -10 1 -10 -4 0
-6 -6 -11 -14 -11 -8 0 -22 -7 -30 -16 -9 -8 -16 -13 -16 -9 0 5 -12 -4 -45
-33 -8 -7 -15 -11 -15 -8 0 10 -116 -98 -160 -151 -31 -36 -70 -93 -70 -102 0
-5 -6 -16 -13 -23 -20 -21 -81 -159 -93 -210 -1 -5 -2 -9 -4 -10 -1 -2 -3 -11
-6 -20 -2 -10 -6 -26 -8 -35 -3 -10 -5 -18 -7 -18 -1 0 -3 -9 -5 -20 -2 -11
-5 -33 -8 -50 -10 -61 -18 -142 -19 -200 -1 -33 -6 -63 -12 -67 -6 -5 -5 -8 2
-8 9 0 10 -7 3 -25 -5 -14 -6 -25 -2 -25 4 0 8 -17 8 -37 1 -52 12 -171 20
-213 9 -52 12 -65 14 -65 1 0 3 -11 6 -24 11 -62 61 -191 79 -203 5 -4 7 -8 3
-8 -10 0 38 -87 73 -132 16 -20 29 -39 29 -43 0 -11 257 -265 269 -265 6 0 11
-3 11 -7 0 -9 58 -51 75 -55 6 -1 19 -10 29 -20 11 -10 24 -18 28 -18 5 0 30
-10 56 -22 26 -12 52 -21 58 -20 6 1 18 -6 27 -15 41 -43 87 -99 87 -107 0 -5
44 -53 97 -107 53 -55 99 -102 102 -107 3 -4 33 -30 66 -57 33 -28 62 -52 65
-55 17 -17 74 -51 130 -77 110 -52 140 -64 168 -69 15 -3 34 -7 42 -10 8 -4
31 -8 50 -11 19 -3 40 -8 45 -12 6 -3 36 -6 67 -6 32 0 58 -2 58 -5 0 -7 156
-4 220 5 30 5 65 8 78 8 12 1 22 4 22 8 0 4 6 6 13 6 24 -3 131 35 142 50 9
12 7 31 -6 79 -10 35 -15 64 -12 64 3 0 0 7 -7 15 -7 8 -10 15 -7 15 3 0 -1
20 -9 45 -7 25 -11 45 -9 45 2 0 -2 15 -10 34 -8 18 -12 36 -9 39 4 3 0 20 -7
36 -10 23 -20 30 -36 28 -12 -2 -25 -6 -29 -10 -18 -17 -33 -4 -39 36 -4 23
-12 48 -19 56 -6 8 -10 16 -8 18 1 1 2 8 2 14 0 10 -53 4 -74 -9 -23 -13 -236
-23 -236 -10 0 5 -9 4 -19 -2 -13 -7 -22 -7 -26 0 -3 5 -19 10 -34 10 -15 0
-31 3 -35 7 -3 4 -17 8 -29 10 -12 2 -29 6 -37 10 -8 3 -24 8 -35 10 -32 6
-39 20 -14 28 47 15 115 50 179 92 71 47 180 145 180 163 0 6 5 8 10 5 6 -3
10 -1 10 5 0 9 45 75 79 116 6 7 7 15 4 18 -4 3 0 6 7 6 7 0 10 3 7 6 -4 4 4
21 16 38 12 17 21 32 19 34 -1 1 4 17 11 35 34 76 65 189 71 257 1 14 4 30 7
35 18 32 17 449 0 480 -3 6 -6 24 -6 40 0 17 -3 35 -7 40 -3 6 -11 35 -19 65
-7 30 -14 57 -14 60 -2 7 -15 40 -25 65 -11 26 -17 48 -18 59 0 5 -4 12 -9 15
-4 3 -14 16 -20 29 -7 12 -19 32 -25 45 -7 12 -17 25 -23 29 -5 4 -6 8 -2 8
26 0 -297 334 -334 345 -11 4 -19 11 -19 16 0 5 -6 9 -14 9 -7 0 -19 7 -26 15
-7 8 -16 13 -20 10 -4 -3 -11 2 -14 11 -3 8 -10 12 -16 9 -5 -3 -10 -1 -10 5
0 6 -4 8 -10 5 -5 -3 -10 -1 -10 4 0 6 -3 10 -7 9 -5 -1 -25 6 -47 15 -21 9
-44 17 -52 17 -7 0 -16 5 -19 11 -4 5 -12 8 -18 6 -7 -2 -23 0 -37 5 -14 6
-43 12 -65 14 -22 3 -51 7 -65 10 -14 3 -31 5 -37 5 -21 -1 -35 -1 -86 1 -27
2 -54 0 -60 -4 -6 -3 -21 -2 -34 3 -14 5 -23 5 -23 -1 0 -6 -9 -6 -23 -1 -14
6 -30 5 -41 -1z m382 -617 c2 -6 8 -9 13 -6 14 9 66 -22 88 -54 12 -16 24 -43
27 -60 4 -17 9 -29 13 -27 4 3 8 -7 9 -21 1 -13 5 -30 9 -36 4 -7 9 -23 9 -37
1 -14 3 -25 4 -25 1 0 3 -11 4 -25 0 -14 4 -29 7 -35 3 -5 6 -49 6 -97 1 -47
4 -91 8 -97 3 -6 3 -11 -2 -11 -4 0 -8 -21 -9 -48 -1 -47 -15 -161 -23 -189
-1 -2 -1 -5 -1 -8 0 -3 -6 -18 -13 -33 -8 -15 -12 -33 -10 -39 3 -7 0 -13 -6
-13 -6 0 -11 -7 -11 -14 0 -22 -47 -107 -67 -122 -10 -7 -15 -14 -11 -14 12 0
-36 -44 -65 -59 -15 -8 -27 -18 -27 -23 0 -5 -4 -6 -10 -3 -5 3 -10 1 -10 -6
0 -7 -3 -10 -6 -7 -3 4 -20 0 -37 -7 -45 -18 -192 -13 -241 8 -21 9 -41 17
-45 17 -8 0 -70 130 -73 155 -2 11 -7 23 -11 26 -4 3 -9 28 -10 55 -1 27 -6
52 -12 56 -11 8 -12 326 -1 378 4 19 9 46 11 60 4 30 33 117 48 145 6 11 10
24 9 28 -1 4 5 10 13 13 8 3 12 10 9 15 -3 5 2 12 10 15 9 3 16 12 16 19 0 17
77 82 123 102 20 9 37 20 37 24 0 4 9 6 20 4 11 -2 22 0 24 4 8 13 180 5 184
-8z"/>
<path d="M8789 6424 c-5 -7 -12 -20 -14 -30 -2 -11 -13 -46 -23 -79 -20 -60
-45 -144 -46 -157 -1 -3 -4 -10 -8 -14 -5 -4 -8 -14 -8 -22 0 -8 -16 -65 -35
-126 -37 -120 -110 -359 -152 -496 -14 -47 -26 -92 -27 -100 0 -8 -3 -17 -6
-20 -5 -5 -68 -207 -75 -240 -2 -8 -4 -15 -5 -15 -1 0 -3 -7 -5 -15 -2 -8 -11
-36 -19 -62 -8 -27 -12 -48 -8 -48 4 0 2 -4 -5 -8 -7 -4 -15 -23 -18 -41 -3
-19 -8 -38 -11 -42 -2 -4 -16 -47 -29 -96 -14 -48 -28 -95 -32 -103 -3 -8 -7
-21 -9 -29 -3 -17 -32 -110 -41 -131 -3 -8 -8 -23 -10 -33 -1 -10 -15 -53 -29
-97 -14 -43 -26 -91 -27 -106 l-2 -28 71 0 72 0 -15 -49 c-8 -26 -13 -53 -11
-59 5 -14 565 -15 577 -2 5 5 16 45 26 89 10 44 24 107 32 140 8 33 17 69 19
80 22 116 38 153 59 135 9 -8 15 -8 20 0 4 6 12 7 23 1 9 -5 26 -5 39 0 13 5
25 4 28 -1 3 -5 15 -6 29 0 12 4 29 4 36 0 8 -5 19 -6 25 -2 16 11 35 11 35 1
0 -6 7 -6 18 0 11 6 24 6 35 0 12 -7 17 -6 17 2 0 9 3 9 14 0 10 -8 16 -9 21
-1 4 6 12 7 23 1 9 -5 26 -5 39 0 12 4 25 4 28 0 3 -5 13 -7 24 -4 16 4 21 -6
35 -69 10 -40 22 -91 27 -113 5 -22 12 -51 15 -65 15 -81 17 -84 65 -85 l44 0
15 -59 15 -58 298 0 c164 0 300 2 303 5 2 2 -31 121 -75 263 -44 143 -109 358
-145 479 -37 121 -70 231 -75 245 -5 14 -21 66 -36 115 -15 50 -44 146 -65
215 -56 184 -91 298 -170 560 -39 129 -74 242 -79 250 -4 8 -22 16 -40 16 -17
1 -35 2 -40 3 -8 1 -18 28 -27 68 -1 6 -6 19 -12 29 -9 16 -36 17 -347 18
-242 1 -339 -2 -346 -10z m431 -836 c12 -51 35 -149 51 -218 17 -69 32 -133
34 -143 2 -9 6 -21 9 -26 9 -14 -12 -17 -104 -15 -138 3 -132 2 -125 23 3 11
8 28 10 38 2 10 22 95 44 188 22 94 43 187 46 208 4 20 9 37 10 37 2 0 13 -42
25 -92z"/>
<path d="M7353 5970 c-2 -3 -8 -5 -11 -6 -22 -2 -102 -29 -127 -42 -16 -9 -33
-15 -36 -15 -3 1 -18 -9 -34 -23 -15 -13 -34 -24 -40 -24 -7 0 -16 -7 -19 -16
-4 -9 -9 -14 -13 -10 -3 3 -13 -4 -21 -15 -13 -19 -16 -19 -24 -6 -6 12 -14
14 -32 8 -12 -5 -29 -5 -36 -1 -8 5 -17 7 -21 5 -3 -3 -9 13 -13 35 -8 52 -26
91 -39 83 -6 -3 -33 -6 -61 -5 -57 2 -98 2 -138 -2 -16 -1 -28 2 -28 7 0 4 -5
5 -11 2 -17 -11 -69 -12 -69 -1 0 6 -4 6 -11 -1 -8 -8 -20 -8 -34 -3 -13 5
-25 7 -28 4 -2 -3 -18 -6 -33 -7 l-29 -2 -1 -823 c0 -576 3 -822 10 -823 6 -1
32 -1 59 -1 51 0 49 4 49 -80 0 -29 4 -38 16 -39 18 0 490 0 532 1 l26 0 -1
533 c0 292 1 538 3 545 2 6 9 12 14 12 6 0 19 11 30 26 11 14 22 23 25 21 2
-3 16 6 30 19 14 13 29 21 33 19 5 -3 10 0 12 6 2 6 32 11 67 12 64 2 64 2 69
-28 3 -16 5 -258 6 -537 1 -280 3 -508 6 -509 3 -1 29 -2 59 -3 l54 -1 1 -59
1 -58 265 0 c146 0 275 1 286 1 21 1 22 5 20 116 0 63 3 115 7 115 5 0 5 5 2
11 -10 15 -12 230 -3 235 4 3 4 15 0 27 -7 20 -8 77 -2 102 1 6 1 12 0 15 -6
16 -4 220 3 220 4 0 4 8 -1 18 -7 15 -8 40 -2 67 1 6 2 12 0 15 -1 3 -3 53 -5
112 -2 59 -6 120 -9 135 -3 15 -8 44 -11 63 -8 51 -33 126 -67 199 -24 52 -53
88 -143 176 -62 62 -128 118 -146 125 -19 8 -36 17 -39 22 -3 4 -17 10 -30 12
-14 2 -27 5 -30 6 -3 1 -9 3 -15 5 -5 1 -12 3 -15 5 -10 5 -251 5 -257 0z"/>
</g>
</svg>
